<svg xmlns="http://www.w3.org/2000/svg" xmlns:xlink="http://www.w3.org/1999/xlink" version="1.1" x="0px" y="0px" viewBox="0 0 100 125" enable-background="new 0 0 100 100" xml:space="preserve"><g><g><path d="M61.8127861,80.283783h-0.0119743c-0.4145889,0-0.8127136-0.1691284-1.1015778-0.46698    c-0.2888641-0.2978439-0.4430275-0.7019501-0.429554-1.116539l0.0044899-0.3681946c0-0.0419083,0-0.1691284,0-0.2095413    c-0.0179634-4.4796524-1.0686531-26.8315239-20.0903435-26.8315239c-0.8471413,0-1.5326347-0.6854935-1.5326347-1.5326347    c0-0.8471375,0.6854935-1.5326309,1.5326347-1.5326309c19.0216904,0,20.0723801-22.3518734,20.0903435-26.8315277    c0-0.040411,0-0.1676311,0-0.2095394L60.26968,20.8164806c-0.0134735-0.414587,0.1406898-0.8186989,0.429554-1.1165447    c0.5777321-0.5956917,1.6314163-0.5956917,2.2091446,0c0.2888641,0.2978458,0.4490128,0.7019577,0.4355431,1.1165447    l-0.0044899,0.3681908c0,0.0089817,0,0.0179615,0,0.0269413c-0.0014954,0.025444-0.0014954,0.0523853-0.0044899,0.0778294    c0.0029945,0.0344238,0.0044899,0.0688477,0.0044899,0.1047688c0.0179596,4.4796543,1.0671539,26.8315277,20.0888443,26.8315277    c0.8471375,0,1.5326309,0.6854935,1.5326309,1.5326309c0,0.8471413-0.6854935,1.5326347-1.5326309,1.5326347    c-19.0216904,0-20.0708847,22.3518715-20.0888443,26.8315239c0,0.0014954,0,0.0014954,0,0.0014954    c0,0.001503,0,0.0029984,0,0.0044937l0,0c0,0.0329285-0.0014954,0.0658569-0.0044899,0.0987854    c0.0029945,0.0344238,0.0044899,0.0688477,0.0044899,0.1047668l0.0044899,0.3681946    c0.0134697,0.4145889-0.1406898,0.8186951-0.429554,1.116539C62.6254997,80.1146545,62.227375,80.283783,61.8127861,80.283783z     M48.727047,49.7583694c7.6975822,3.0832253,11.3510513,10.2928772,13.0797539,16.7811203    c1.7286987-6.4882431,5.3806763-13.6978951,13.0782547-16.7811203    c-7.6975784-3.0832214-11.349556-10.2928772-13.0782547-16.7811165    C60.0780983,39.4654922,56.4246292,46.675148,48.727047,49.7583694z"/></g><g><path d="M26.2793846,43.6951981c-0.0059872,0-0.0134697,0-0.0194569,0    c-0.8187008-0.0089798-1.4847374-0.6600494-1.5116768-1.4817429c-0.0014973-0.0419083-0.0074844-0.2245064-0.0029945-0.5163651    c-0.0314312-1.5221558-0.3502293-6.2996559-3.0443096-9.0341454c-1.3126144-1.3320732-2.990427-1.9801483-5.1292267-1.9801483    c-0.8471375,0-1.5326309-0.6854935-1.5326309-1.5326309c0-0.8471394,0.6854935-1.5326328,1.5326309-1.5326328    c2.1642437,0,3.8555279-0.6630421,5.1741295-2.0265446c2.8018417-2.8976326,2.9919243-7.9879436,2.9979095-9.158371    c0-0.0344257,0-0.065855,0-0.0957909c0-0.0912991-0.0014954-0.1436825-0.0014954-0.1481743    c-0.0224514-0.6316109,0.3457394-1.2108383,0.9264641-1.4607887c0.5747356-0.2484541,1.2527466-0.1182404,1.6957722,0.3322697    c0.2753944,0.2798853,0.4325485,0.6735201,0.4415302,1.0656586h0.0059853    c0.0014973,0.1317101,0.0029945,0.3217926-0.0029926,0.5597687c0.0419083,1.6074677,0.3966274,6.2652302,3.0443096,8.9518261    c1.3126144,1.3320713,2.9904251,1.9801464,5.1292267,1.9801464c0.8471375,0,1.5326309,0.6854935,1.5326309,1.5326328    c0,0.8471375-0.6854935,1.5326309-1.5326309,1.5326309c-2.1642456,0-3.8570251,0.6630421-5.1756248,2.0265465    c-2.8063316,2.9021225-2.9934216,8.0029106-2.9979115,9.1628609c0,0.0299339,0,0.0583725,0,0.0853119    c0,0.0942917,0.0014973,0.1481743,0.0014973,0.1541634c0.0224495,0.6301117-0.3457413,1.2093391-0.9264641,1.4592896    C26.6894836,43.6547852,26.4844341,43.6951981,26.2793846,43.6951981z M22.2083321,29.1501656    c0.6256256,0.399622,1.2063484,0.875576,1.7421722,1.4293575c1.0207558,1.0551815,1.7736015,2.2974491,2.3258877,3.5711498    c0.5537815-1.2737007,1.3066273-2.5159683,2.3273849-3.5711498c0.5343246-0.5537815,1.1165447-1.0297356,1.7421703-1.4293575    c-0.6256256-0.399622-1.2078457-0.875576-1.7421703-1.4278622c-1.0207577-1.0566769-1.7721062-2.297451-2.3258896-3.5681572    c-0.5657558,1.2991447-1.3395557,2.5638638-2.3947353,3.6355095    C23.366787,28.3135033,22.8085136,28.7670078,22.2083321,29.1501656z"/></g><g><path d="M41.4275894,85.3965454c-0.0089798,0-0.019455,0-0.0284348,0    c-0.8142128-0.0134735-1.4757576-0.6645432-1.502697-1.4817429c-0.0014992-0.0359268-0.0059891-0.1960754-0.0014992-0.4550018    c-0.0359192-1.8753815-0.5507889-5.1007919-2.3213959-6.896843c-0.9758568-0.9923172-2.2315979-1.4742584-3.836071-1.4742584    c-0.8471375,0-1.5326309-0.6854935-1.5326309-1.5326309s0.6854935-1.5326309,1.5326309-1.5326309    c1.6224365,0,2.8886528-0.4939194,3.8689995-1.5086899c2.3767738-2.4561005,2.286972-7.1677437,2.2854767-7.2156372    c-0.0224533-0.6301155,0.3457375-1.209343,0.9264603-1.4592934c0.582222-0.2499504,1.2542458-0.1167412,1.6972733,0.3322716    c0.2753944,0.2798843,0.4325485,0.6705246,0.440033,1.062664h0.0044899    c0.0014954,0.1122513,0.0014954,0.2768898-0.0029945,0.4834366c0.0478935,1.8843575,0.5702477,5.0558891,2.3199005,6.8309898    c0.9758568,0.9923172,2.2315941,1.4742584,3.8360672,1.4742584c0.8471413,0,1.5326347,0.6854935,1.5326347,1.5326309    s-0.6854935,1.5326309-1.5326347,1.5326309c-1.6224327,0-2.888649,0.4939117-3.8689957,1.5086823    c-2.3767738,2.4561005-2.286972,7.1677475-2.2854767,7.2156448c0.0224533,0.6301117-0.3457375,1.2093353-0.9264641,1.4592896    C41.8376884,85.3561325,41.6311455,85.3965454,41.4275894,85.3965454z M38.7679367,73.5560684    c0.3681908,0.2679062,0.7154274,0.5717392,1.0432053,0.909996c0.6705284,0.6929779,1.1988678,1.4832458,1.6134567,2.3049393    c0.4160843-0.8216934,0.9444237-1.6119614,1.6149483-2.3049393c0.3277817-0.3382568,0.6750183-0.6420898,1.0432091-0.909996    c-0.3681908-0.2679138-0.7154274-0.5717468-1.0432091-0.9100037c-0.6690292-0.6929779-1.1973686-1.4817429-1.6119576-2.3019409    c-0.4280586,0.841156-0.9743576,1.6493759-1.6703262,2.3558273    C39.4459457,73.0172501,39.1166687,73.3016281,38.7679367,73.5560684z"/></g></g><text x="0" y="115" fill="#000000" font-size="5px" font-weight="bold" font-family="'Helvetica Neue', Helvetica, Arial-Unicode, Arial, Sans-serif">Created by ILKEBRS</text><text x="0" y="120" fill="#000000" font-size="5px" font-weight="bold" font-family="'Helvetica Neue', Helvetica, Arial-Unicode, Arial, Sans-serif">from the Noun Project</text></svg>